<svg width="15" height="11" viewBox="0 0 15 11" fill="none" xmlns="http://www.w3.org/2000/svg">
<path d="M12.7929 0.292893C13.1834 -0.0976311 13.8164 -0.0976311 14.207 0.292893C14.5975 0.683417 14.5975 1.31643 14.207 1.70696L5.20696 10.707C4.81643 11.0975 4.18342 11.0975 3.79289 10.707L0.292893 7.20696C-0.0976311 6.81643 -0.0976311 6.18342 0.292893 5.79289C0.659009 5.42678 1.23801 5.40418 1.63078 5.72453L1.70696 5.79289L4.49992 8.58586L12.7929 0.292893Z" fill="#FFBB00"/>
<path d="M12.7929 0.292893C13.1834 -0.0976311 13.8164 -0.0976311 14.207 0.292893C14.5975 0.683417 14.5975 1.31643 14.207 1.70696L5.20696 10.707C4.81643 11.0975 4.18342 11.0975 3.79289 10.707L0.292893 7.20696C-0.0976311 6.81643 -0.0976311 6.18342 0.292893 5.79289C0.659009 5.42678 1.23801 5.40418 1.63078 5.72453L1.70696 5.79289L4.49992 8.58586L12.7929 0.292893Z" fill="black" fill-opacity="0.2"/>
</svg>
