<svg width="20" height="21" viewBox="0 0 20 21" fill="none" xmlns="http://www.w3.org/2000/svg">
<path d="M16.025 13.2851L13.908 13.0323C13.6592 13.0019 13.4071 13.0307 13.1705 13.1166C12.9339 13.2026 12.719 13.3434 12.542 13.5285L11.008 15.13C8.6427 13.8732 6.72012 11.8647 5.517 9.39372L7.058 7.78283C7.417 7.40884 7.592 6.8865 7.533 6.35477L7.292 4.16095C7.24464 3.7362 7.04942 3.34447 6.7435 3.06033C6.43759 2.77619 6.04234 2.61949 5.633 2.62006H4.192C3.25 2.62006 2.467 3.43908 2.525 4.42212C2.967 11.8571 8.658 17.7939 15.767 18.2557C16.708 18.3163 17.492 17.4983 17.492 16.5142V15.0088C17.4941 14.5831 17.3454 14.1716 17.0746 13.8534C16.8038 13.5352 16.43 13.3328 16.025 13.2851Z" fill="url(#paint0_linear_72_977)"/>
<defs>
<linearGradient id="paint0_linear_72_977" x1="10.007" y1="2.62006" x2="10.007" y2="18.2589" gradientUnits="userSpaceOnUse">
<stop stop-color="#FFBF00"/>
<stop offset="1" stop-color="#F2A60C"/>
</linearGradient>
</defs>
</svg>
