<svg width="20" height="21" viewBox="0 0 20 21" fill="none" xmlns="http://www.w3.org/2000/svg">
<path d="M16.667 3.48187H3.33299C2.41699 3.48187 1.67499 4.26538 1.67499 5.22334L1.66699 15.6701C1.66699 16.628 2.41699 17.4115 3.33299 17.4115H16.667C17.583 17.4115 18.333 16.628 18.333 15.6701V5.22334C18.333 4.26538 17.583 3.48187 16.667 3.48187ZM16.333 7.18211L10.442 11.0307C10.3091 11.1162 10.1561 11.1614 9.99999 11.1614C9.84391 11.1614 9.6909 11.1162 9.55799 11.0307L3.66699 7.18211C3.5846 7.13249 3.51261 7.06604 3.45534 6.98673C3.39807 6.90741 3.35668 6.81685 3.33364 6.72046C3.3106 6.62407 3.30639 6.52381 3.32126 6.42568C3.33613 6.32755 3.36977 6.23355 3.42017 6.1493C3.47058 6.06505 3.53671 5.99227 3.61464 5.93531C3.69256 5.87835 3.78066 5.83837 3.8737 5.81776C3.96673 5.79715 4.06279 5.79634 4.15613 5.81536C4.24948 5.83439 4.3382 5.87287 4.41699 5.9285L9.99999 9.5765L15.583 5.9285C15.6618 5.87287 15.7505 5.83439 15.8439 5.81536C15.9372 5.79634 16.0333 5.79715 16.1263 5.81776C16.2193 5.83837 16.3074 5.87835 16.3853 5.93531C16.4633 5.99227 16.5294 6.06505 16.5798 6.1493C16.6302 6.23355 16.6639 6.32755 16.6787 6.42568C16.6936 6.52381 16.6894 6.62407 16.6663 6.72046C16.6433 6.81685 16.6019 6.90741 16.5446 6.98673C16.4874 7.06604 16.4154 7.13249 16.333 7.18211Z" fill="url(#paint0_linear_72_973)"/>
<defs>
<linearGradient id="paint0_linear_72_973" x1="9.99999" y1="3.48187" x2="9.99999" y2="17.4115" gradientUnits="userSpaceOnUse">
<stop stop-color="#FFBF00"/>
<stop offset="1" stop-color="#F2A60C"/>
</linearGradient>
</defs>
</svg>
