<svg width="32" height="34" viewBox="0 0 32 34" fill="none" xmlns="http://www.w3.org/2000/svg">
<g clip-path="url(#clip0_72_945)">
<path d="M16 0C11.6533 0 11.1107 0.0208935 9.404 0.100289C7.7 0.183863 6.54 0.463835 5.52 0.877526C4.468 1.30375 3.57467 1.87623 2.68533 2.80529C1.796 3.73436 1.24667 4.66621 0.84 5.7666C0.444 6.83217 0.174667 8.04399 0.096 9.82411C0.016 11.6071 0 12.1739 0 16.7148C0 21.2557 0.02 21.8225 0.096 23.6054C0.176 25.3842 0.444 26.5974 0.84 27.663C1.248 28.7606 1.796 29.6952 2.68533 30.6243C3.57467 31.552 4.46667 32.1272 5.52 32.552C6.54133 32.9644 7.70133 33.247 9.404 33.3293C11.1107 33.4128 11.6533 33.4296 16 33.4296C20.3467 33.4296 20.8893 33.4087 22.596 33.3293C24.2987 33.2457 25.46 32.9644 26.48 32.552C27.5307 32.1258 28.4253 31.552 29.3147 30.6243C30.2027 29.6952 30.7533 28.7648 31.16 27.663C31.5547 26.5974 31.8253 25.3842 31.904 23.6054C31.984 21.8225 32 21.2557 32 16.7148C32 12.1739 31.98 11.6071 31.904 9.82411C31.824 8.04538 31.5547 6.83078 31.16 5.7666C30.752 4.6676 30.2027 3.73436 29.3147 2.80529C28.4253 1.87623 27.5347 1.30236 26.48 0.877526C25.46 0.463835 24.2987 0.18247 22.596 0.100289C20.8893 0.0167148 20.3467 0 16 0ZM16 3.00866C20.2707 3.00866 20.78 3.03094 22.4667 3.10756C24.0267 3.18416 24.8733 3.45439 25.436 3.68561C26.1853 3.98786 26.716 4.35002 27.2787 4.93365C27.8373 5.51867 28.184 6.07443 28.4733 6.85724C28.692 7.44504 28.9533 8.32953 29.024 9.95922C29.1 11.7226 29.1173 12.2519 29.1173 16.7148C29.1173 21.1776 29.0973 21.7083 29.0187 23.4704C28.9373 25.1001 28.6773 25.9845 28.4573 26.5723C28.1587 27.3551 27.8187 27.9095 27.2587 28.4973C26.7 29.0809 26.16 29.4431 25.4187 29.7453C24.8587 29.9738 23.9987 30.2467 22.4387 30.3206C20.74 30.4 20.24 30.4181 15.96 30.4181C11.6787 30.4181 11.1787 30.3972 9.48133 30.3151C7.92 30.23 7.06 29.9584 6.5 29.7286C5.74133 29.4166 5.22 29.0615 4.66133 28.4764C4.1 27.8928 3.74133 27.3287 3.46133 26.5542C3.24133 25.9692 2.98267 25.0708 2.90133 23.4411C2.84133 21.6861 2.82 21.1442 2.82 16.6939C2.82 12.2422 2.84133 11.699 2.90133 9.92301C2.98267 8.29332 3.24133 7.39629 3.46133 6.81127C3.74133 6.01732 4.1 5.47409 4.66133 4.88768C5.22 4.30406 5.74133 3.92797 6.5 3.63685C7.06 3.40564 7.90133 3.13402 9.46133 3.05045C11.1613 2.98777 11.6613 2.96687 15.94 2.96687L16 3.00866ZM16 8.13174C11.46 8.13174 7.784 11.9761 7.784 16.7148C7.784 21.4576 11.464 25.2978 16 25.2978C20.54 25.2978 24.216 21.4534 24.216 16.7148C24.216 11.972 20.536 8.13174 16 8.13174ZM16 22.2863C13.0533 22.2863 10.6667 19.7931 10.6667 16.7148C10.6667 13.6364 13.0533 11.1432 16 11.1432C18.9467 11.1432 21.3333 13.6364 21.3333 16.7148C21.3333 19.7931 18.9467 22.2863 16 22.2863ZM26.4613 7.79326C26.4613 8.90062 25.6 9.79904 24.5413 9.79904C23.4813 9.79904 22.6213 8.89923 22.6213 7.79326C22.6213 6.6873 23.4827 5.78888 24.5413 5.78888C25.5987 5.78749 26.4613 6.6873 26.4613 7.79326Z" fill="url(#paint0_linear_72_945)"/>
</g>
<defs>
<linearGradient id="paint0_linear_72_945" x1="16" y1="0" x2="16" y2="33.4296" gradientUnits="userSpaceOnUse">
<stop stop-color="#FFBF00"/>
<stop offset="1" stop-color="#F2A60C"/>
</linearGradient>
<clipPath id="clip0_72_945">
<rect width="32" height="33.4296" fill="white"/>
</clipPath>
</defs>
</svg>
