<svg width="32" height="20" viewBox="0 0 32 20" fill="none" xmlns="http://www.w3.org/2000/svg">
<path d="M31.3307 3.12361C31.1499 2.51955 30.7934 1.96823 30.2968 1.52486C29.8003 1.08148 29.1811 0.761612 28.5013 0.597286C26.0067 -1.58617e-07 16 0 16 0C16 0 5.99333 -1.58617e-07 3.49733 0.597286C2.81788 0.761905 2.19906 1.08189 1.70277 1.52523C1.20648 1.96858 0.850122 2.51975 0.669333 3.12361C0 5.35188 0 10 0 10C0 10 0 14.6482 0.669333 16.8764C0.850115 17.4805 1.20663 18.0318 1.70319 18.4752C2.19974 18.9185 2.8189 19.2384 3.49867 19.4027C5.99333 20 16 20 16 20C16 20 26.0067 20 28.5027 19.4027C29.1825 19.2386 29.8017 18.9187 30.2983 18.4753C30.7949 18.0319 31.1513 17.4805 31.332 16.8764C32 14.6482 32 10 32 10C32 10 32 5.35188 31.3307 3.12361ZM12.7267 14.22V5.78005L21.0907 10L12.7267 14.22Z" fill="#B3B3B3"/>
</svg>
