<svg width="32" height="34" viewBox="0 0 32 34" fill="none" xmlns="http://www.w3.org/2000/svg">
<path d="M31.3307 8.61636C31.1499 7.90497 30.7934 7.25569 30.2968 6.73353C29.8003 6.21137 29.1811 5.83466 28.5013 5.64113C26.0067 4.93771 16 4.93771 16 4.93771C16 4.93771 5.99333 4.93771 3.49733 5.64113C2.81788 5.835 2.19906 6.21185 1.70277 6.73397C1.20648 7.25609 0.850122 7.9052 0.669333 8.61636C0 11.2406 0 16.7147 0 16.7147C0 16.7147 0 22.1888 0.669333 24.813C0.850115 25.5244 1.20663 26.1737 1.70319 26.6958C2.19974 27.2179 2.8189 27.5946 3.49867 27.7882C5.99333 28.4916 16 28.4916 16 28.4916C16 28.4916 26.0067 28.4916 28.5027 27.7882C29.1825 27.5948 29.8017 27.2181 30.2983 26.696C30.7949 26.1738 31.1513 25.5244 31.332 24.813C32 22.1888 32 16.7147 32 16.7147C32 16.7147 32 11.2406 31.3307 8.61636ZM12.7267 21.6845V11.7448L21.0907 16.7147L12.7267 21.6845Z" fill="url(#paint0_linear_72_947)"/>
<defs>
<linearGradient id="paint0_linear_72_947" x1="16" y1="4.93771" x2="16" y2="28.4916" gradientUnits="userSpaceOnUse">
<stop stop-color="#FFBF00"/>
<stop offset="1" stop-color="#F2A60C"/>
</linearGradient>
</defs>
</svg>
