<svg width="239" height="40" viewBox="0 0 239 40" fill="none" xmlns="http://www.w3.org/2000/svg">
<path d="M25.56 39H16.488L5.92803 12.648C6.21603 14.92 6.44003 17.064 6.60003 19.08C6.79203 21.064 6.88803 23.4 6.88803 26.088V39H0.504028V5.78399H9.38403L20.136 32.184C19.496 27.896 19.176 23.96 19.176 20.376V5.78399H25.56V39Z" fill="url(#paint0_linear_25_583)"/>
<path d="M39.2385 13.56V39H32.4225V13.56H39.2385ZM35.7825 0.455994C36.9985 0.455994 37.9905 0.839993 38.7585 1.60799C39.5585 2.34399 39.9585 3.28799 39.9585 4.43999C39.9585 5.59199 39.5585 6.55199 38.7585 7.31999C37.9905 8.05599 36.9985 8.42399 35.7825 8.42399C34.5665 8.42399 33.5745 8.05599 32.8065 7.31999C32.0385 6.55199 31.6545 5.59199 31.6545 4.43999C31.6545 3.28799 32.0385 2.34399 32.8065 1.60799C33.5745 0.839993 34.5665 0.455994 35.7825 0.455994Z" fill="url(#paint1_linear_25_583)"/>
<path d="M65.4094 31.944C65.4094 32.936 65.5534 33.672 65.8414 34.152C66.1294 34.6 66.6094 34.936 67.2814 35.16L65.8414 39.672C64.3374 39.544 63.1054 39.192 62.1454 38.616C61.2174 38.04 60.4974 37.144 59.9854 35.928C58.3214 38.488 55.7774 39.768 52.3534 39.768C49.8254 39.768 47.8094 39.048 46.3054 37.608C44.8334 36.136 44.0974 34.232 44.0974 31.896C44.0974 29.112 45.1054 26.984 47.1214 25.512C49.1374 24.04 52.0334 23.304 55.8094 23.304H58.7374V22.056C58.7374 20.488 58.3854 19.4 57.6814 18.792C56.9774 18.184 55.8094 17.88 54.1774 17.88C52.3854 17.88 50.1454 18.328 47.4574 19.224L45.9214 14.664C49.0894 13.416 52.2254 12.792 55.3294 12.792C58.7854 12.792 61.3294 13.544 62.9614 15.048C64.5934 16.52 65.4094 18.728 65.4094 21.672V31.944ZM54.2254 34.872C56.1454 34.872 57.6494 33.928 58.7374 32.04V27.192H56.4814C52.8014 27.192 50.9614 28.568 50.9614 31.32C50.9614 32.44 51.2334 33.32 51.7774 33.96C52.3534 34.568 53.1694 34.872 54.2254 34.872Z" fill="url(#paint2_linear_25_583)"/>
<path d="M85.3714 12.84C86.1394 12.84 86.9874 12.968 87.9154 13.224L86.7634 19.8C85.8674 19.576 85.1154 19.464 84.5074 19.464C83.0034 19.464 81.8354 19.992 81.0034 21.048C80.1714 22.104 79.5154 23.704 79.0354 25.848V39H72.2194V13.56H78.1234L78.7474 18.504C79.3554 16.712 80.2354 15.32 81.3874 14.328C82.5714 13.336 83.8994 12.84 85.3714 12.84Z" fill="url(#paint3_linear_25_583)"/>
<path d="M109.05 31.944C109.05 32.936 109.194 33.672 109.482 34.152C109.77 34.6 110.25 34.936 110.922 35.16L109.482 39.672C107.978 39.544 106.746 39.192 105.786 38.616C104.858 38.04 104.138 37.144 103.626 35.928C101.962 38.488 99.418 39.768 95.994 39.768C93.466 39.768 91.45 39.048 89.946 37.608C88.474 36.136 87.738 34.232 87.738 31.896C87.738 29.112 88.746 26.984 90.762 25.512C92.778 24.04 95.674 23.304 99.45 23.304H102.378V22.056C102.378 20.488 102.026 19.4 101.322 18.792C100.618 18.184 99.45 17.88 97.818 17.88C96.026 17.88 93.786 18.328 91.098 19.224L89.562 14.664C92.73 13.416 95.866 12.792 98.97 12.792C102.426 12.792 104.97 13.544 106.602 15.048C108.234 16.52 109.05 18.728 109.05 21.672V31.944ZM97.866 34.872C99.786 34.872 101.29 33.928 102.378 32.04V27.192H100.122C96.442 27.192 94.602 28.568 94.602 31.32C94.602 32.44 94.874 33.32 95.418 33.96C95.994 34.568 96.81 34.872 97.866 34.872Z" fill="url(#paint4_linear_25_583)"/>
<path d="M137.995 5.78399C142.315 5.78399 145.659 6.67999 148.027 8.47199C150.427 10.264 151.627 12.936 151.627 16.488C151.627 20.2 150.443 23 148.075 24.888C145.707 26.744 142.539 27.672 138.571 27.672H134.779V39H127.723V5.78399H137.995ZM137.995 22.488C140.043 22.488 141.611 22.024 142.699 21.096C143.787 20.168 144.331 18.632 144.331 16.488C144.331 12.744 142.187 10.872 137.899 10.872H134.779V22.488H137.995Z" fill="url(#paint5_linear_25_583)"/>
<path d="M173.034 31.944C173.034 32.936 173.178 33.672 173.466 34.152C173.754 34.6 174.234 34.936 174.906 35.16L173.466 39.672C171.962 39.544 170.73 39.192 169.77 38.616C168.842 38.04 168.122 37.144 167.61 35.928C165.946 38.488 163.402 39.768 159.978 39.768C157.45 39.768 155.434 39.048 153.93 37.608C152.458 36.136 151.722 34.232 151.722 31.896C151.722 29.112 152.73 26.984 154.746 25.512C156.762 24.04 159.658 23.304 163.434 23.304H166.362V22.056C166.362 20.488 166.01 19.4 165.306 18.792C164.602 18.184 163.434 17.88 161.802 17.88C160.01 17.88 157.77 18.328 155.082 19.224L153.546 14.664C156.714 13.416 159.85 12.792 162.954 12.792C166.41 12.792 168.954 13.544 170.586 15.048C172.218 16.52 173.034 18.728 173.034 21.672V31.944ZM161.85 34.872C163.77 34.872 165.274 33.928 166.362 32.04V27.192H164.106C160.426 27.192 158.586 28.568 158.586 31.32C158.586 32.44 158.858 33.32 159.402 33.96C159.978 34.568 160.794 34.872 161.85 34.872Z" fill="url(#paint6_linear_25_583)"/>
<path d="M186.66 13.56V39H179.844V13.56H186.66ZM183.204 0.455994C184.42 0.455994 185.412 0.839993 186.18 1.60799C186.98 2.34399 187.38 3.28799 187.38 4.43999C187.38 5.59199 186.98 6.55199 186.18 7.31999C185.412 8.05599 184.42 8.42399 183.204 8.42399C181.988 8.42399 180.996 8.05599 180.228 7.31999C179.46 6.55199 179.076 5.59199 179.076 4.43999C179.076 3.28799 179.46 2.34399 180.228 1.60799C180.996 0.839993 181.988 0.455994 183.204 0.455994Z" fill="url(#paint7_linear_25_583)"/>
<path d="M214.511 13.56L206.351 39H198.239L189.935 13.56H197.327L202.367 33.672L207.503 13.56H214.511Z" fill="url(#paint8_linear_25_583)"/>
<path d="M236.269 31.944C236.269 32.936 236.413 33.672 236.701 34.152C236.989 34.6 237.469 34.936 238.141 35.16L236.701 39.672C235.197 39.544 233.965 39.192 233.005 38.616C232.077 38.04 231.357 37.144 230.845 35.928C229.181 38.488 226.637 39.768 223.213 39.768C220.685 39.768 218.669 39.048 217.165 37.608C215.693 36.136 214.957 34.232 214.957 31.896C214.957 29.112 215.965 26.984 217.981 25.512C219.997 24.04 222.893 23.304 226.669 23.304H229.597V22.056C229.597 20.488 229.245 19.4 228.541 18.792C227.837 18.184 226.669 17.88 225.037 17.88C223.245 17.88 221.005 18.328 218.317 19.224L216.781 14.664C219.949 13.416 223.085 12.792 226.189 12.792C229.645 12.792 232.189 13.544 233.821 15.048C235.453 16.52 236.269 18.728 236.269 21.672V31.944ZM225.085 34.872C227.005 34.872 228.509 33.928 229.597 32.04V27.192H227.341C223.661 27.192 221.821 28.568 221.821 31.32C221.821 32.44 222.093 33.32 222.637 33.96C223.213 34.568 224.029 34.872 225.085 34.872Z" fill="url(#paint9_linear_25_583)"/>
<defs>
<linearGradient id="paint0_linear_25_583" x1="0.504028" y1="20.112" x2="238.141" y2="20.112" gradientUnits="userSpaceOnUse">
<stop stop-color="#C358DE"/>
<stop offset="1" stop-color="#4626D4"/>
</linearGradient>
<linearGradient id="paint1_linear_25_583" x1="0.504028" y1="20.112" x2="238.141" y2="20.112" gradientUnits="userSpaceOnUse">
<stop stop-color="#C358DE"/>
<stop offset="1" stop-color="#4626D4"/>
</linearGradient>
<linearGradient id="paint2_linear_25_583" x1="0.504028" y1="20.112" x2="238.141" y2="20.112" gradientUnits="userSpaceOnUse">
<stop stop-color="#C358DE"/>
<stop offset="1" stop-color="#4626D4"/>
</linearGradient>
<linearGradient id="paint3_linear_25_583" x1="0.504028" y1="20.112" x2="238.141" y2="20.112" gradientUnits="userSpaceOnUse">
<stop stop-color="#C358DE"/>
<stop offset="1" stop-color="#4626D4"/>
</linearGradient>
<linearGradient id="paint4_linear_25_583" x1="0.504028" y1="20.112" x2="238.141" y2="20.112" gradientUnits="userSpaceOnUse">
<stop stop-color="#C358DE"/>
<stop offset="1" stop-color="#4626D4"/>
</linearGradient>
<linearGradient id="paint5_linear_25_583" x1="0.504028" y1="20.112" x2="238.141" y2="20.112" gradientUnits="userSpaceOnUse">
<stop stop-color="#C358DE"/>
<stop offset="1" stop-color="#4626D4"/>
</linearGradient>
<linearGradient id="paint6_linear_25_583" x1="0.504028" y1="20.112" x2="238.141" y2="20.112" gradientUnits="userSpaceOnUse">
<stop stop-color="#C358DE"/>
<stop offset="1" stop-color="#4626D4"/>
</linearGradient>
<linearGradient id="paint7_linear_25_583" x1="0.504028" y1="20.112" x2="238.141" y2="20.112" gradientUnits="userSpaceOnUse">
<stop stop-color="#C358DE"/>
<stop offset="1" stop-color="#4626D4"/>
</linearGradient>
<linearGradient id="paint8_linear_25_583" x1="0.504028" y1="20.112" x2="238.141" y2="20.112" gradientUnits="userSpaceOnUse">
<stop stop-color="#C358DE"/>
<stop offset="1" stop-color="#4626D4"/>
</linearGradient>
<linearGradient id="paint9_linear_25_583" x1="0.504028" y1="20.112" x2="238.141" y2="20.112" gradientUnits="userSpaceOnUse">
<stop stop-color="#C358DE"/>
<stop offset="1" stop-color="#4626D4"/>
</linearGradient>
</defs>
</svg>
